<svg width="70" height="83" viewBox="0 0 70 83" fill="none" xmlns="http://www.w3.org/2000/svg">
<path d="M69.8163 0.226349H0.183685V82.819H69.8163V0.226349ZM34.9985 68.4287H8.87395L9.41458 61.4686C9.89636 58.8261 11.6365 56.5832 14.073 55.4638L24.5791 51.1682C26.3302 50.3646 27.0589 48.0219 27.0589 45.995V44.368C27.0589 43.5984 26.931 42.8328 26.681 42.1013C26.681 42.1013 19.7219 35.9745 19.7219 27.4175C19.7219 16.7234 26.5651 9.84717 34.9985 9.84717C43.4388 9.84717 50.2779 16.7234 50.2779 27.4175C50.2779 35.9748 43.3228 42.1013 43.3228 42.1013C43.066 42.8328 42.9439 43.5984 42.9439 44.368V45.995C42.9439 48.0219 43.6685 50.3646 45.4206 51.1682L55.9237 55.4638C58.3633 56.5832 60.1024 58.8261 60.5859 61.4686L61.1248 68.4287H34.9985Z" fill="#777B79"/>
</svg>
