<svg width="248" height="65" viewBox="0 0 248 65" fill="none" xmlns="http://www.w3.org/2000/svg">
<circle cx="124" cy="20" r="20" fill="#D9D9D9"/>
<path d="M3.017 62H1.127V51.878H3.017V62ZM14.3763 51.878V62H13.4103C13.2609 62 13.1349 61.9767 13.0323 61.93C12.9343 61.8787 12.8386 61.7947 12.7453 61.678L7.46025 54.93C7.48825 55.238 7.50225 55.5227 7.50225 55.784V62H5.84325V51.878H6.83025C6.90958 51.878 6.97725 51.8827 7.03325 51.892C7.09392 51.8967 7.14525 51.9107 7.18725 51.934C7.23392 51.9527 7.27825 51.983 7.32025 52.025C7.36225 52.0623 7.40892 52.1137 7.46025 52.179L12.7663 58.955C12.7523 58.7917 12.7406 58.6307 12.7313 58.472C12.7219 58.3133 12.7172 58.1663 12.7172 58.031V51.878H14.3763ZM24.2604 53.425H21.2084V62H19.3254V53.425H16.2734V51.878H24.2604V53.425ZM28.0349 53.376V56.183H31.5769V57.632H28.0349V60.495H32.5289V62H26.1449V51.878H32.5289V53.376H28.0349ZM37.8166 56.694C38.1713 56.694 38.4793 56.6497 38.7406 56.561C39.0066 56.4723 39.2236 56.351 39.3916 56.197C39.5643 56.0383 39.6926 55.8517 39.7766 55.637C39.8606 55.4223 39.9026 55.1867 39.9026 54.93C39.9026 54.4167 39.7323 54.0223 39.3916 53.747C39.0556 53.4717 38.54 53.334 37.8446 53.334H36.6406V56.694H37.8166ZM42.6606 62H40.9596C40.6376 62 40.4043 61.874 40.2596 61.622L38.1316 58.381C38.0523 58.2597 37.9636 58.1733 37.8656 58.122C37.7723 58.0707 37.6323 58.045 37.4456 58.045H36.6406V62H34.7576V51.878H37.8446C38.5306 51.878 39.1186 51.9503 39.6086 52.095C40.1033 52.235 40.507 52.4333 40.8196 52.69C41.137 52.9467 41.3703 53.2547 41.5196 53.614C41.669 53.9687 41.7436 54.3607 41.7436 54.79C41.7436 55.1307 41.6923 55.4527 41.5896 55.756C41.4916 56.0593 41.347 56.3347 41.1556 56.582C40.969 56.8293 40.7356 57.0463 40.4556 57.233C40.1803 57.4197 39.8653 57.5667 39.5106 57.674C39.632 57.744 39.744 57.828 39.8466 57.926C39.9493 58.0193 40.0426 58.1313 40.1266 58.262L42.6606 62ZM52.8467 51.878V62H51.8807C51.7314 62 51.6054 61.9767 51.5027 61.93C51.4047 61.8787 51.3091 61.7947 51.2157 61.678L45.9307 54.93C45.9587 55.238 45.9727 55.5227 45.9727 55.784V62H44.3137V51.878H45.3007C45.3801 51.878 45.4477 51.8827 45.5037 51.892C45.5644 51.8967 45.6157 51.9107 45.6577 51.934C45.7044 51.9527 45.7487 51.983 45.7907 52.025C45.8327 52.0623 45.8794 52.1137 45.9307 52.179L51.2367 58.955C51.2227 58.7917 51.2111 58.6307 51.2017 58.472C51.1924 58.3133 51.1877 58.1663 51.1877 58.031V51.878H52.8467ZM61.0088 58.178L59.7768 54.811C59.7162 54.6617 59.6532 54.4843 59.5878 54.279C59.5225 54.0737 59.4572 53.852 59.3918 53.614C59.3312 53.852 59.2682 54.076 59.2028 54.286C59.1375 54.4913 59.0745 54.671 59.0138 54.825L57.7888 58.178H61.0088ZM64.3338 62H62.8778C62.7145 62 62.5815 61.9603 62.4788 61.881C62.3762 61.797 62.2992 61.6943 62.2478 61.573L61.4918 59.508H57.2988L56.5428 61.573C56.5055 61.6803 56.4332 61.7783 56.3258 61.867C56.2185 61.9557 56.0855 62 55.9268 62H54.4568L58.4398 51.878H60.3578L64.3338 62ZM72.0272 53.425H68.9752V62H67.0922V53.425H64.0402V51.878H72.0272V53.425ZM75.8017 62H73.9117V51.878H75.8017V62ZM88.2809 56.939C88.2809 57.681 88.1573 58.3693 87.9099 59.004C87.6673 59.634 87.3219 60.18 86.8739 60.642C86.4259 61.104 85.8869 61.4657 85.2569 61.727C84.6269 61.9837 83.9269 62.112 83.1569 62.112C82.3916 62.112 81.6939 61.9837 81.0639 61.727C80.4339 61.4657 79.8926 61.104 79.4399 60.642C78.9919 60.18 78.6443 59.634 78.3969 59.004C78.1496 58.3693 78.0259 57.681 78.0259 56.939C78.0259 56.197 78.1496 55.511 78.3969 54.881C78.6443 54.2463 78.9919 53.698 79.4399 53.236C79.8926 52.774 80.4339 52.4147 81.0639 52.158C81.6939 51.8967 82.3916 51.766 83.1569 51.766C83.6703 51.766 84.1533 51.8267 84.6059 51.948C85.0586 52.0647 85.4739 52.2327 85.8519 52.452C86.2299 52.6667 86.5683 52.9303 86.8669 53.243C87.1703 53.551 87.4269 53.8963 87.6369 54.279C87.8469 54.6617 88.0056 55.077 88.1129 55.525C88.2249 55.973 88.2809 56.4443 88.2809 56.939ZM86.3559 56.939C86.3559 56.3837 86.2813 55.8867 86.1319 55.448C85.9826 55.0047 85.7703 54.629 85.4949 54.321C85.2196 54.013 84.8836 53.7773 84.4869 53.614C84.0949 53.4507 83.6516 53.369 83.1569 53.369C82.6623 53.369 82.2166 53.4507 81.8199 53.614C81.4279 53.7773 81.0919 54.013 80.8119 54.321C80.5366 54.629 80.3243 55.0047 80.1749 55.448C80.0256 55.8867 79.9509 56.3837 79.9509 56.939C79.9509 57.4943 80.0256 57.9937 80.1749 58.437C80.3243 58.8757 80.5366 59.249 80.8119 59.557C81.0919 59.8603 81.4279 60.0937 81.8199 60.257C82.2166 60.4203 82.6623 60.502 83.1569 60.502C83.6516 60.502 84.0949 60.4203 84.4869 60.257C84.8836 60.0937 85.2196 59.8603 85.4949 59.557C85.7703 59.249 85.9826 58.8757 86.1319 58.437C86.2813 57.9937 86.3559 57.4943 86.3559 56.939ZM99.0276 51.878V62H98.0616C97.9122 62 97.7862 61.9767 97.6836 61.93C97.5856 61.8787 97.4899 61.7947 97.3966 61.678L92.1116 54.93C92.1396 55.238 92.1536 55.5227 92.1536 55.784V62H90.4946V51.878H91.4816C91.5609 51.878 91.6286 51.8827 91.6846 51.892C91.7452 51.8967 91.7966 51.9107 91.8386 51.934C91.8852 51.9527 91.9296 51.983 91.9716 52.025C92.0136 52.0623 92.0602 52.1137 92.1116 52.179L97.4176 58.955C97.4036 58.7917 97.3919 58.6307 97.3826 58.472C97.3732 58.3133 97.3686 58.1663 97.3686 58.031V51.878H99.0276ZM107.19 58.178L105.958 54.811C105.897 54.6617 105.834 54.4843 105.769 54.279C105.703 54.0737 105.638 53.852 105.573 53.614C105.512 53.852 105.449 54.076 105.384 54.286C105.318 54.4913 105.255 54.671 105.195 54.825L103.97 58.178H107.19ZM110.515 62H109.059C108.895 62 108.762 61.9603 108.66 61.881C108.557 61.797 108.48 61.6943 108.429 61.573L107.673 59.508H103.48L102.724 61.573C102.686 61.6803 102.614 61.7783 102.507 61.867C102.399 61.9557 102.266 62 102.108 62H100.638L104.621 51.878H106.539L110.515 62ZM118.051 60.446V62H112.122V51.878H114.005V60.446H118.051ZM127.283 60.53C127.633 60.53 127.927 60.488 128.165 60.404C128.403 60.32 128.592 60.208 128.732 60.068C128.877 59.928 128.98 59.7647 129.04 59.578C129.106 59.3913 129.138 59.193 129.138 58.983C129.138 58.7637 129.103 58.5677 129.033 58.395C128.963 58.2177 128.854 58.0683 128.704 57.947C128.555 57.821 128.361 57.7253 128.123 57.66C127.89 57.5947 127.608 57.562 127.276 57.562H125.379V60.53H127.283ZM125.379 53.334V56.26H126.877C127.521 56.26 128.007 56.1433 128.333 55.91C128.665 55.6767 128.83 55.3057 128.83 54.797C128.83 54.2697 128.681 53.894 128.382 53.67C128.084 53.446 127.617 53.334 126.982 53.334H125.379ZM126.982 51.878C127.645 51.878 128.212 51.941 128.683 52.067C129.155 52.193 129.54 52.3727 129.838 52.606C130.142 52.8393 130.363 53.1217 130.503 53.453C130.643 53.7843 130.713 54.1577 130.713 54.573C130.713 54.811 130.678 55.0397 130.608 55.259C130.538 55.4737 130.429 55.6767 130.279 55.868C130.135 56.0547 129.948 56.225 129.719 56.379C129.495 56.533 129.227 56.6637 128.914 56.771C130.305 57.0837 131 57.835 131 59.025C131 59.4543 130.919 59.851 130.755 60.215C130.592 60.579 130.354 60.894 130.041 61.16C129.729 61.4213 129.344 61.6267 128.886 61.776C128.429 61.9253 127.906 62 127.318 62H123.496V51.878H126.982ZM139.2 60.446V62H133.271V51.878H135.154V60.446H139.2ZM153.178 51.878V62H151.288V57.576H146.535V62H144.645V51.878H146.535V56.232H151.288V51.878H153.178ZM157.882 62H155.992V51.878H157.882V62ZM169.052 56.925V61.02C168.539 61.398 167.991 61.6757 167.407 61.853C166.829 62.0257 166.208 62.112 165.545 62.112C164.719 62.112 163.97 61.9837 163.298 61.727C162.631 61.4703 162.059 61.1133 161.583 60.656C161.112 60.1987 160.748 59.6527 160.491 59.018C160.235 58.3833 160.106 57.6903 160.106 56.939C160.106 56.1783 160.23 55.4807 160.477 54.846C160.725 54.2113 161.075 53.6653 161.527 53.208C161.985 52.7507 162.538 52.396 163.186 52.144C163.835 51.892 164.563 51.766 165.37 51.766C165.781 51.766 166.164 51.7987 166.518 51.864C166.878 51.9293 167.209 52.0203 167.512 52.137C167.82 52.249 168.1 52.3867 168.352 52.55C168.604 52.7133 168.835 52.893 169.045 53.089L168.506 53.943C168.422 54.0783 168.313 54.1623 168.177 54.195C168.042 54.223 167.895 54.188 167.736 54.09C167.582 54.0013 167.428 53.9127 167.274 53.824C167.12 53.7353 166.948 53.6583 166.756 53.593C166.57 53.5277 166.357 53.474 166.119 53.432C165.886 53.39 165.615 53.369 165.307 53.369C164.808 53.369 164.355 53.453 163.949 53.621C163.548 53.789 163.205 54.0293 162.92 54.342C162.636 54.6547 162.416 55.0303 162.262 55.469C162.108 55.9077 162.031 56.3977 162.031 56.939C162.031 57.5177 162.113 58.0357 162.276 58.493C162.444 58.9457 162.678 59.3307 162.976 59.648C163.28 59.9607 163.644 60.201 164.068 60.369C164.493 60.5323 164.967 60.614 165.489 60.614C165.863 60.614 166.196 60.5743 166.49 60.495C166.784 60.4157 167.071 60.3083 167.351 60.173V58.339H166.077C165.956 58.339 165.86 58.3063 165.79 58.241C165.725 58.171 165.692 58.087 165.692 57.989V56.925H169.052ZM179.96 51.878V62H178.07V57.576H173.317V62H171.427V51.878H173.317V56.232H178.07V51.878H179.96ZM182.445 57.051H186.071V58.493H182.445V57.051ZM193.946 53.719C193.89 53.817 193.83 53.8893 193.764 53.936C193.704 53.978 193.627 53.999 193.533 53.999C193.435 53.999 193.328 53.964 193.211 53.894C193.099 53.8193 192.964 53.7377 192.805 53.649C192.647 53.5603 192.46 53.481 192.245 53.411C192.035 53.3363 191.786 53.299 191.496 53.299C191.235 53.299 191.006 53.3317 190.81 53.397C190.614 53.4577 190.449 53.544 190.313 53.656C190.183 53.768 190.085 53.9033 190.019 54.062C189.954 54.216 189.921 54.3863 189.921 54.573C189.921 54.811 189.987 55.0093 190.117 55.168C190.253 55.3267 190.43 55.462 190.649 55.574C190.869 55.686 191.118 55.7863 191.398 55.875C191.678 55.9637 191.965 56.0593 192.259 56.162C192.553 56.26 192.84 56.3767 193.12 56.512C193.4 56.6427 193.65 56.8107 193.869 57.016C194.089 57.2167 194.264 57.464 194.394 57.758C194.53 58.052 194.597 58.409 194.597 58.829C194.597 59.2863 194.518 59.7157 194.359 60.117C194.205 60.5137 193.977 60.8613 193.673 61.16C193.375 61.454 193.008 61.6873 192.574 61.86C192.14 62.028 191.643 62.112 191.083 62.112C190.761 62.112 190.444 62.0793 190.131 62.014C189.819 61.9533 189.518 61.8647 189.228 61.748C188.944 61.6313 188.675 61.4913 188.423 61.328C188.171 61.1647 187.947 60.9827 187.751 60.782L188.304 59.879C188.351 59.8137 188.412 59.76 188.486 59.718C188.561 59.6713 188.64 59.648 188.724 59.648C188.841 59.648 188.967 59.697 189.102 59.795C189.238 59.8883 189.399 59.9933 189.585 60.11C189.772 60.2267 189.989 60.334 190.236 60.432C190.488 60.5253 190.789 60.572 191.139 60.572C191.676 60.572 192.091 60.446 192.385 60.194C192.679 59.9373 192.826 59.571 192.826 59.095C192.826 58.829 192.759 58.612 192.623 58.444C192.493 58.276 192.318 58.136 192.098 58.024C191.879 57.9073 191.629 57.8093 191.349 57.73C191.069 57.6507 190.785 57.5643 190.495 57.471C190.206 57.3777 189.921 57.2657 189.641 57.135C189.361 57.0043 189.112 56.834 188.892 56.624C188.673 56.414 188.496 56.1527 188.36 55.84C188.23 55.5227 188.164 55.133 188.164 54.671C188.164 54.3023 188.237 53.943 188.381 53.593C188.531 53.243 188.745 52.9327 189.025 52.662C189.305 52.3913 189.651 52.1743 190.061 52.011C190.472 51.8477 190.943 51.766 191.475 51.766C192.073 51.766 192.623 51.8593 193.127 52.046C193.631 52.2327 194.061 52.494 194.415 52.83L193.946 53.719ZM203.751 59.613C203.854 59.613 203.945 59.6527 204.024 59.732L204.766 60.537C204.355 61.0457 203.849 61.4353 203.247 61.706C202.65 61.9767 201.931 62.112 201.091 62.112C200.34 62.112 199.663 61.9837 199.061 61.727C198.464 61.4703 197.953 61.1133 197.528 60.656C197.103 60.1987 196.777 59.6527 196.548 59.018C196.324 58.3833 196.212 57.6903 196.212 56.939C196.212 56.1783 196.333 55.483 196.576 54.853C196.819 54.2183 197.159 53.6723 197.598 53.215C198.041 52.7577 198.569 52.403 199.18 52.151C199.791 51.8943 200.468 51.766 201.21 51.766C201.947 51.766 202.601 51.8873 203.17 52.13C203.744 52.3727 204.232 52.69 204.633 53.082L204.003 53.957C203.966 54.013 203.917 54.062 203.856 54.104C203.8 54.146 203.721 54.167 203.618 54.167C203.548 54.167 203.476 54.1483 203.401 54.111C203.326 54.069 203.245 54.02 203.156 53.964C203.067 53.9033 202.965 53.838 202.848 53.768C202.731 53.698 202.596 53.635 202.442 53.579C202.288 53.5183 202.108 53.4693 201.903 53.432C201.702 53.39 201.469 53.369 201.203 53.369C200.75 53.369 200.335 53.4507 199.957 53.614C199.584 53.7727 199.262 54.006 198.991 54.314C198.72 54.6173 198.51 54.9907 198.361 55.434C198.212 55.8727 198.137 56.3743 198.137 56.939C198.137 57.5083 198.216 58.0147 198.375 58.458C198.538 58.9013 198.758 59.2747 199.033 59.578C199.308 59.8813 199.633 60.1147 200.006 60.278C200.379 60.4367 200.781 60.516 201.21 60.516C201.467 60.516 201.698 60.502 201.903 60.474C202.113 60.446 202.304 60.4017 202.477 60.341C202.654 60.2803 202.82 60.2033 202.974 60.11C203.133 60.012 203.289 59.893 203.443 59.753C203.49 59.711 203.539 59.6783 203.59 59.655C203.641 59.627 203.695 59.613 203.751 59.613ZM215.149 51.878V62H213.259V57.576H208.506V62H206.616V51.878H208.506V56.232H213.259V51.878H215.149ZM227.616 56.939C227.616 57.681 227.492 58.3693 227.245 59.004C227.002 59.634 226.657 60.18 226.209 60.642C225.761 61.104 225.222 61.4657 224.592 61.727C223.962 61.9837 223.262 62.112 222.492 62.112C221.727 62.112 221.029 61.9837 220.399 61.727C219.769 61.4657 219.228 61.104 218.775 60.642C218.327 60.18 217.979 59.634 217.732 59.004C217.485 58.3693 217.361 57.681 217.361 56.939C217.361 56.197 217.485 55.511 217.732 54.881C217.979 54.2463 218.327 53.698 218.775 53.236C219.228 52.774 219.769 52.4147 220.399 52.158C221.029 51.8967 221.727 51.766 222.492 51.766C223.005 51.766 223.488 51.8267 223.941 51.948C224.394 52.0647 224.809 52.2327 225.187 52.452C225.565 52.6667 225.903 52.9303 226.202 53.243C226.505 53.551 226.762 53.8963 226.972 54.279C227.182 54.6617 227.341 55.077 227.448 55.525C227.56 55.973 227.616 56.4443 227.616 56.939ZM225.691 56.939C225.691 56.3837 225.616 55.8867 225.467 55.448C225.318 55.0047 225.105 54.629 224.83 54.321C224.555 54.013 224.219 53.7773 223.822 53.614C223.43 53.4507 222.987 53.369 222.492 53.369C221.997 53.369 221.552 53.4507 221.155 53.614C220.763 53.7773 220.427 54.013 220.147 54.321C219.872 54.629 219.659 55.0047 219.51 55.448C219.361 55.8867 219.286 56.3837 219.286 56.939C219.286 57.4943 219.361 57.9937 219.51 58.437C219.659 58.8757 219.872 59.249 220.147 59.557C220.427 59.8603 220.763 60.0937 221.155 60.257C221.552 60.4203 221.997 60.502 222.492 60.502C222.987 60.502 223.43 60.4203 223.822 60.257C224.219 60.0937 224.555 59.8603 224.83 59.557C225.105 59.249 225.318 58.8757 225.467 58.437C225.616 57.9937 225.691 57.4943 225.691 56.939ZM239.483 56.939C239.483 57.681 239.359 58.3693 239.112 59.004C238.869 59.634 238.524 60.18 238.076 60.642C237.628 61.104 237.089 61.4657 236.459 61.727C235.829 61.9837 235.129 62.112 234.359 62.112C233.593 62.112 232.896 61.9837 232.266 61.727C231.636 61.4657 231.094 61.104 230.642 60.642C230.194 60.18 229.846 59.634 229.599 59.004C229.351 58.3693 229.228 57.681 229.228 56.939C229.228 56.197 229.351 55.511 229.599 54.881C229.846 54.2463 230.194 53.698 230.642 53.236C231.094 52.774 231.636 52.4147 232.266 52.158C232.896 51.8967 233.593 51.766 234.359 51.766C234.872 51.766 235.355 51.8267 235.808 51.948C236.26 52.0647 236.676 52.2327 237.054 52.452C237.432 52.6667 237.77 52.9303 238.069 53.243C238.372 53.551 238.629 53.8963 238.839 54.279C239.049 54.6617 239.207 55.077 239.315 55.525C239.427 55.973 239.483 56.4443 239.483 56.939ZM237.558 56.939C237.558 56.3837 237.483 55.8867 237.334 55.448C237.184 55.0047 236.972 54.629 236.697 54.321C236.421 54.013 236.085 53.7773 235.689 53.614C235.297 53.4507 234.853 53.369 234.359 53.369C233.864 53.369 233.418 53.4507 233.022 53.614C232.63 53.7773 232.294 54.013 232.014 54.321C231.738 54.629 231.526 55.0047 231.377 55.448C231.227 55.8867 231.153 56.3837 231.153 56.939C231.153 57.4943 231.227 57.9937 231.377 58.437C231.526 58.8757 231.738 59.249 232.014 59.557C232.294 59.8603 232.63 60.0937 233.022 60.257C233.418 60.4203 233.864 60.502 234.359 60.502C234.853 60.502 235.297 60.4203 235.689 60.257C236.085 60.0937 236.421 59.8603 236.697 59.557C236.972 59.249 237.184 58.8757 237.334 58.437C237.483 57.9937 237.558 57.4943 237.558 56.939ZM247.625 60.446V62H241.696V51.878H243.579V60.446H247.625Z" fill="white"/>
</svg>
