<svg width="20" height="20" viewBox="0 0 20 20" fill="none" xmlns="http://www.w3.org/2000/svg">
<path d="M1 19L7 13M17.5 8.5L19 7L13 1L11.5 2.5C11.1025 2.89798 10.8792 3.43749 10.8792 4C10.8792 4.56251 11.1025 5.10202 11.5 5.5L8.5 8.5C8.10613 8.10587 7.63845 7.79321 7.1237 7.5799C6.60895 7.36658 6.0572 7.25678 5.5 7.25678C4.9428 7.25678 4.39105 7.36658 3.8763 7.5799C3.36155 7.79321 2.89387 8.10587 2.5 8.5L11.4775 17.545L11.5 17.5C12.2914 16.7021 12.7355 15.6238 12.7355 14.5C12.7355 13.3762 12.2914 12.2979 11.5 11.5L14.5 8.5C14.898 8.89754 15.4375 9.12083 16 9.12083C16.5625 9.12083 17.102 8.89754 17.5 8.5Z" stroke="#32923C"/>
</svg>
