<svg width="34" height="34" viewBox="0 0 34 34" fill="none" xmlns="http://www.w3.org/2000/svg">
<path d="M1 33L11.6667 22.3333M30.3333 14.3333L33 11.6667L22.3333 1L19.6667 3.66667C18.9599 4.37418 18.563 5.33331 18.563 6.33333C18.563 7.33336 18.9599 8.29248 19.6667 9L14.3333 14.3333C13.6331 13.6327 12.8017 13.0768 11.8866 12.6976C10.9715 12.3184 9.99058 12.1232 9 12.1232C8.00942 12.1232 7.02854 12.3184 6.11342 12.6976C5.19831 13.0768 4.36688 13.6327 3.66667 14.3333L19.6267 30.4133L19.6667 30.3333C21.0736 28.9149 21.8631 26.9979 21.8631 25C21.8631 23.0021 21.0736 21.0851 19.6667 19.6667L25 14.3333C25.7075 15.0401 26.6666 15.437 27.6667 15.437C28.6667 15.437 29.6258 15.0401 30.3333 14.3333Z" stroke="#CD2626"/>
</svg>
