<svg width="805" height="71" viewBox="0 0 805 71" fill="none" xmlns="http://www.w3.org/2000/svg">
<mask id="path-1-inside-1_101_13" fill="white">
<path fill-rule="evenodd" clip-rule="evenodd" d="M415.84 11.791C414.996 16.4592 410.911 20 406 20C400.883 20 396.664 16.1571 396.071 11.2001L1 71L0.70068 69.0225L396.033 9.18316C396.448 4.04237 400.752 0 406 0C411.453 0 415.887 4.36522 415.998 9.79208L804.294 68.5268L803.995 70.5043L415.84 11.791Z"/>
</mask>
<path fill-rule="evenodd" clip-rule="evenodd" d="M415.84 11.791C414.996 16.4592 410.911 20 406 20C400.883 20 396.664 16.1571 396.071 11.2001L1 71L0.70068 69.0225L396.033 9.18316C396.448 4.04237 400.752 0 406 0C411.453 0 415.887 4.36522 415.998 9.79208L804.294 68.5268L803.995 70.5043L415.84 11.791Z" fill="#D9D9D9"/>
<path d="M415.84 11.791L416.139 9.81346L414.218 9.52281L413.872 11.4351L415.84 11.791ZM396.071 11.2001L398.057 10.9626L397.812 8.91385L395.772 9.22265L396.071 11.2001ZM1 71L-0.977475 71.2993L-0.678155 73.2768L1.29932 72.9775L1 71ZM0.70068 69.0225L0.40136 67.045L-1.57611 67.3444L-1.2768 69.3218L0.70068 69.0225ZM396.033 9.18316L396.332 11.1606L397.899 10.9235L398.026 9.34432L396.033 9.18316ZM415.998 9.79208L413.998 9.83286L414.033 11.5176L415.699 11.7696L415.998 9.79208ZM804.294 68.5268L806.272 68.826L806.571 66.8484L804.593 66.5493L804.294 68.5268ZM803.995 70.5043L803.696 72.4818L805.674 72.781L805.973 70.8035L803.995 70.5043ZM413.872 11.4351C413.197 15.1684 409.927 18 406 18V22C411.896 22 416.795 17.75 417.808 12.1468L413.872 11.4351ZM406 18C401.908 18 398.531 14.9261 398.057 10.9626L394.085 11.4377C394.797 17.3881 399.858 22 406 22V18ZM1.29932 72.9775L396.371 13.1776L395.772 9.22265L0.70068 69.0225L1.29932 72.9775ZM-1.2768 69.3218L-0.977475 71.2993L2.97748 70.7007L2.67816 68.7232L-1.2768 69.3218ZM395.734 7.20568L0.40136 67.045L1 71L396.332 11.1606L395.734 7.20568ZM398.026 9.34432C398.359 5.23376 401.803 2 406 2V-2C399.702 -2 394.538 2.85097 394.039 9.022L398.026 9.34432ZM406 2C410.362 2 413.91 5.49222 413.998 9.83286L417.997 9.7513C417.865 3.23822 412.544 -2 406 -2V2ZM804.593 66.5493L416.297 7.81457L415.699 11.7696L803.995 70.5043L804.593 66.5493ZM805.973 70.8035L806.272 68.826L802.317 68.2277L802.018 70.2052L805.973 70.8035ZM415.541 13.7685L803.696 72.4818L804.294 68.5268L416.139 9.81346L415.541 13.7685Z" fill="black" mask="url(#path-1-inside-1_101_13)"/>
</svg>
